<svg xmlns="http://www.w3.org/2000/svg" width="45" height="32" viewBox="0 0 45 32"><defs><style>.a{fill:none;}.b{fill:#2699fb;}</style></defs><g transform="translate(-644 -4)"><rect class="a" width="45" height="32" transform="translate(644 4)"/><g transform="translate(305.134 -373.329)"><path d="M355.16,394.748a6.606,6.606,0,1,1-13.209,0v-14.42h-3.085v14.42a9.689,9.689,0,1,0,19.376,0v-14.42H355.16Z" transform="translate(0 4.659)"/><path d="M365.878,380.328v18.927l-4.194-5.29V380.328H358.6v9.75l-7.73-9.75h-2.419v24.246h3.085v-18.5l7.065,8.908v9.59h3.082v-5.7l4.524,5.7h2.755V380.328Z" transform="translate(14.892 4.659)"/><path class="b" d="M354.281,381.445a2.058,2.058,0,1,0-2.056-2.058A2.062,2.062,0,0,0,354.281,381.445Z" transform="translate(20.754 0)"/></g></g></svg>