<svg xmlns="http://www.w3.org/2000/svg" width="36" height="36" viewBox="0 0 36 36"><defs><style>.a{fill:none;}.b{fill:#2699fb;fill-rule:evenodd;}</style></defs><rect class="a" width="36" height="36"/><path class="b" d="M44.017,17A10.831,10.831,0,0,0,55.1,6.212V5.7A8.451,8.451,0,0,0,57,3.747a8.948,8.948,0,0,1-2.217.616,4.018,4.018,0,0,0,1.689-2.055,9.841,9.841,0,0,1-2.428.925A3.817,3.817,0,0,0,51.194,2a3.914,3.914,0,0,0-3.906,3.8,1.953,1.953,0,0,0,.106.822,11.011,11.011,0,0,1-8.022-4.007,3.854,3.854,0,0,0-.528,1.952,4.05,4.05,0,0,0,1.689,3.185,3.63,3.63,0,0,1-1.794-.514h0a3.784,3.784,0,0,0,3.167,3.7,3.339,3.339,0,0,1-1.056.1,1.842,1.842,0,0,1-.739-.1,3.987,3.987,0,0,0,3.694,2.671,8.109,8.109,0,0,1-4.856,1.644,3,3,0,0,1-.95-.1A10.151,10.151,0,0,0,44.017,17" transform="translate(-29 9)"/></svg>